# Blender v2.93.5 OBJ File: 'bird.blend'
# www.blender.org
mtllib bird.mtl
o Cube
v -1.000000 0.297761 -0.302700
v -1.000000 -0.297761 -0.302700
v -1.000000 0.297761 0.302700
v -1.000000 -0.297761 0.302700
v 0.737230 0.297761 -0.302700
v 1.000000 0.099800 -0.112037
v 1.000000 -0.099800 -0.112037
v 0.737230 -0.297761 -0.302700
v 1.000000 0.099800 0.112037
v 0.737230 0.297761 0.302700
v 1.000000 -0.099800 0.112037
v 0.737230 -0.297761 0.302700
v 0.996435 0.012403 0.128296
v 0.996749 -0.005210 0.125831
v 0.997050 -0.022146 0.118530
v 0.997329 -0.037754 0.106675
v 0.997572 -0.051435 0.090719
v 0.997772 -0.062662 0.071278
v 0.997921 -0.071005 0.049097
v 0.998013 -0.076143 0.025029
v 0.998044 -0.077877 0.000000
v 0.998013 -0.076143 -0.025029
v 0.997921 -0.071005 -0.049097
v 0.997772 -0.062662 -0.071278
v 0.997572 -0.051435 -0.090719
v 0.997329 -0.037754 -0.106674
v 0.997050 -0.022146 -0.118530
v 0.996749 -0.005210 -0.125831
v 0.996435 0.012403 -0.128296
v 0.996121 0.030016 -0.125831
v 0.995819 0.046952 -0.118530
v 0.995541 0.062560 -0.106674
v 0.995297 0.076241 -0.090719
v 0.995097 0.087468 -0.071278
v 0.994948 0.095811 -0.049097
v 0.994857 0.100949 -0.025029
v 0.994826 0.102683 0.000000
v 0.994857 0.100949 0.025029
v 0.994948 0.095811 0.049097
v 0.995097 0.087468 0.071278
v 0.995297 0.076241 0.090719
v 0.995541 0.062560 0.106675
v 0.995819 0.046952 0.118530
v 0.996121 0.030016 0.125831
v 1.202467 -0.092046 0.000000
v 0.868615 0.198781 -0.207368
v 0.868615 -0.198781 -0.207368
v 0.868615 0.198781 0.207368
v 0.868615 -0.198781 0.207368
v 0.934307 0.149291 -0.159703
v 0.934307 -0.149291 0.159703
v 0.934307 -0.149291 -0.159703
v 0.934307 0.149291 0.159703
vt 0.125000 0.500000
vt 0.342154 0.500000
vt 0.342154 0.750000
vt 0.125000 0.750000
vt 0.375000 0.000000
vt 0.625000 0.000000
vt 0.625000 0.250000
vt 0.375000 0.250000
vt 0.375000 0.782846
vt 0.625000 0.782846
vt 0.625000 1.000000
vt 0.375000 1.000000
vt 0.657846 0.500000
vt 0.875000 0.500000
vt 0.875000 0.750000
vt 0.657846 0.750000
vt 0.407846 0.532846
vt 0.592154 0.532846
vt 0.592154 0.717154
vt 0.407846 0.717154
vt 0.608577 0.500000
vt 0.391423 0.500000
vt 0.375000 0.467154
vt 0.625000 0.467154
vt 0.600365 0.733577
vt 0.399635 0.733577
vt 0.608577 0.524635
vt 0.608577 0.725365
vt 0.391423 0.725365
vt 0.391423 0.524635
vt 0.250000 0.490000
vt 0.250000 0.250000
vt 0.296822 0.485388
vt 0.341844 0.471731
vt 0.383337 0.449553
vt 0.419706 0.419706
vt 0.449553 0.383337
vt 0.471731 0.341844
vt 0.485388 0.296822
vt 0.490000 0.250000
vt 0.485388 0.203178
vt 0.471731 0.158156
vt 0.449553 0.116663
vt 0.419706 0.080294
vt 0.383337 0.050447
vt 0.341844 0.028269
vt 0.296822 0.014612
vt 0.250000 0.010000
vt 0.203178 0.014612
vt 0.158156 0.028269
vt 0.116663 0.050447
vt 0.080294 0.080294
vt 0.050447 0.116663
vt 0.028269 0.158156
vt 0.014612 0.203178
vt 0.010000 0.250000
vt 0.014612 0.296822
vt 0.028269 0.341844
vt 0.050447 0.383337
vt 0.080294 0.419706
vt 0.116663 0.449553
vt 0.158156 0.471731
vt 0.750000 0.490000
vt 0.796822 0.485388
vt 0.841844 0.471731
vt 0.883337 0.449553
vt 0.919706 0.419706
vt 0.949553 0.383337
vt 0.971731 0.341844
vt 0.985388 0.296822
vt 0.990000 0.250000
vt 0.985388 0.203178
vt 0.971731 0.158156
vt 0.949553 0.116663
vt 0.919706 0.080294
vt 0.883337 0.050447
vt 0.841844 0.028269
vt 0.796822 0.014612
vt 0.750000 0.010000
vt 0.703178 0.014612
vt 0.658156 0.028269
vt 0.616663 0.050447
vt 0.580294 0.080294
vt 0.550447 0.116663
vt 0.528269 0.158156
vt 0.514612 0.203178
vt 0.510000 0.250000
vt 0.514612 0.296822
vt 0.528269 0.341844
vt 0.550447 0.383337
vt 0.580294 0.419706
vt 0.616663 0.449553
vt 0.658156 0.471731
vt 0.703178 0.485388
vt 0.203178 0.485388
vt 0.375000 0.516423
vt 0.375000 0.733577
vt 0.625000 0.733577
vt 0.625000 0.516423
vt 0.391423 0.750000
vt 0.608577 0.750000
vt 0.600365 0.516423
vt 0.399635 0.516423
vn 0.0000 -1.0000 0.0000
vn -1.0000 0.0000 0.0000
vn 0.0000 0.0000 1.0000
vn 0.0000 1.0000 0.0000
vn 1.0000 0.0000 0.0000
vn 0.5873 0.0000 -0.8094
vn 0.5873 0.0000 0.8094
vn 0.6017 0.7987 0.0000
vn 0.6017 -0.7987 0.0000
vn 0.0000 0.0000 -1.0000
vn -0.4833 0.1129 -0.8681
vn -0.3703 0.3621 -0.8554
vn -0.2479 0.5832 -0.7736
vn -0.1372 0.7509 -0.6460
vn -0.0499 0.8647 -0.4999
vn 0.0118 0.9359 -0.3520
vn 0.0505 0.9768 -0.2083
vn 0.0690 0.9952 -0.0689
vn 0.0690 0.9952 0.0689
vn 0.0505 0.9768 0.2083
vn 0.0118 0.9359 0.3520
vn -0.0499 0.8647 0.4999
vn -0.1372 0.7509 0.6460
vn -0.2479 0.5832 0.7736
vn -0.3703 0.3621 0.8554
vn -0.4833 0.1129 0.8681
vn -0.5690 -0.1239 0.8129
vn -0.6238 -0.3188 0.7137
vn -0.6546 -0.4646 0.5963
vn -0.6705 -0.5683 0.4770
vn -0.6781 -0.6395 0.3623
vn -0.6815 -0.6865 0.2536
vn -0.6828 -0.7150 0.1500
vn -0.6832 -0.7285 0.0496
vn -0.6832 -0.7285 -0.0496
vn -0.6828 -0.7150 -0.1500
vn -0.6815 -0.6865 -0.2536
vn -0.6781 -0.6395 -0.3623
vn -0.6705 -0.5683 -0.4770
vn -0.6546 -0.4646 -0.5963
vn 0.9998 0.0178 -0.0000
vn -0.6238 -0.3188 -0.7137
vn -0.5690 -0.1239 -0.8129
usemtl Material
s off
f 2/1/1 8/2/1 12/3/1 4/4/1
f 4/5/2 3/6/2 1/7/2 2/8/2
f 12/9/3 10/10/3 3/11/3 4/12/3
f 5/13/4 1/14/4 3/15/4 10/16/4
f 7/17/5 6/18/5 9/19/5 11/20/5
f 46/21/6 47/22/6 8/23/6 5/24/6
f 53/25/7 51/26/7 11/20/7 9/19/7
f 50/27/8 53/28/8 9/19/8 6/18/8
f 51/29/9 52/30/9 7/17/9 11/20/9
f 2/8/10 1/7/10 5/24/10 8/23/10
f 13/31/11 45/32/11 14/33/11
f 14/33/12 45/32/12 15/34/12
f 15/34/13 45/32/13 16/35/13
f 16/35/14 45/32/14 17/36/14
f 17/36/15 45/32/15 18/37/15
f 18/37/16 45/32/16 19/38/16
f 19/38/17 45/32/17 20/39/17
f 20/39/18 45/32/18 21/40/18
f 21/40/19 45/32/19 22/41/19
f 22/41/20 45/32/20 23/42/20
f 23/42/21 45/32/21 24/43/21
f 24/43/22 45/32/22 25/44/22
f 25/44/23 45/32/23 26/45/23
f 26/45/24 45/32/24 27/46/24
f 27/46/25 45/32/25 28/47/25
f 28/47/26 45/32/26 29/48/26
f 29/48/27 45/32/27 30/49/27
f 30/49/28 45/32/28 31/50/28
f 31/50/29 45/32/29 32/51/29
f 32/51/30 45/32/30 33/52/30
f 33/52/31 45/32/31 34/53/31
f 34/53/32 45/32/32 35/54/32
f 35/54/33 45/32/33 36/55/33
f 36/55/34 45/32/34 37/56/34
f 37/56/35 45/32/35 38/57/35
f 38/57/36 45/32/36 39/58/36
f 39/58/37 45/32/37 40/59/37
f 40/59/38 45/32/38 41/60/38
f 41/60/39 45/32/39 42/61/39
f 42/61/40 45/32/40 43/62/40
f 13/63/41 14/64/41 15/65/41 16/66/41 17/67/41 18/68/41 19/69/41 20/70/41 21/71/41 22/72/41 23/73/41 24/74/41 25/75/41 26/76/41 27/77/41 28/78/41 29/79/41 30/80/41 31/81/41 32/82/41 33/83/41 34/84/41 35/85/41 36/86/41 37/87/41 38/88/41 39/89/41 40/90/41 41/91/41 42/92/41 43/93/41 44/94/41
f 43/62/42 45/32/42 44/95/42
f 44/95/43 45/32/43 13/31/43
f 12/3/9 8/2/9 47/96/9 49/97/9
f 5/13/8 10/16/8 48/98/8 46/99/8
f 10/10/7 12/9/7 49/100/7 48/101/7
f 50/102/6 52/103/6 47/22/6 46/21/6
f 6/18/6 7/17/6 52/103/6 50/102/6
f 49/97/9 47/96/9 52/30/9 51/29/9
f 46/99/8 48/98/8 53/28/8 50/27/8
f 48/101/7 49/100/7 51/26/7 53/25/7
o Cube.001
v -0.240562 -0.016547 1.621778
v -0.240562 0.016547 1.621778
v -0.240562 -0.016547 -1.621778
v -0.240562 0.016547 -1.621778
v 0.240562 -0.016547 1.621778
v 0.240562 0.016547 1.621778
v 0.240562 -0.016547 -1.621778
v 0.240562 0.016547 -1.621778
vt 0.375000 0.000000
vt 0.625000 0.000000
vt 0.625000 0.250000
vt 0.375000 0.250000
vt 0.625000 0.500000
vt 0.375000 0.500000
vt 0.625000 0.750000
vt 0.375000 0.750000
vt 0.625000 1.000000
vt 0.375000 1.000000
vt 0.125000 0.500000
vt 0.125000 0.750000
vt 0.875000 0.500000
vt 0.875000 0.750000
vn -1.0000 0.0000 0.0000
vn 0.0000 0.0000 -1.0000
vn 1.0000 0.0000 0.0000
vn 0.0000 0.0000 1.0000
vn 0.0000 -1.0000 0.0000
vn 0.0000 1.0000 0.0000
usemtl Material.001
s off
f 54/104/44 55/105/44 57/106/44 56/107/44
f 56/107/45 57/106/45 61/108/45 60/109/45
f 60/109/46 61/108/46 59/110/46 58/111/46
f 58/111/47 59/110/47 55/112/47 54/113/47
f 56/114/48 60/109/48 58/111/48 54/115/48
f 61/108/49 57/116/49 55/117/49 59/110/49
o Cube.002
v 0.238732 0.133143 1.571048
v 0.238732 -0.004614 1.571048
v 0.238732 0.133143 1.623162
v 0.238732 -0.004614 1.623162
v -0.238732 0.133143 1.571048
v -0.238732 -0.004614 1.571048
v -0.238732 0.133143 1.623162
v -0.238732 -0.004614 1.623162
vt 0.375000 0.000000
vt 0.375000 0.250000
vt 0.625000 0.250000
vt 0.625000 0.000000
vt 0.375000 0.500000
vt 0.625000 0.500000
vt 0.375000 0.750000
vt 0.625000 0.750000
vt 0.375000 1.000000
vt 0.625000 1.000000
vt 0.125000 0.500000
vt 0.125000 0.750000
vt 0.875000 0.750000
vt 0.875000 0.500000
vn 1.0000 0.0000 0.0000
vn 0.0000 0.0000 1.0000
vn -1.0000 0.0000 0.0000
vn 0.0000 0.0000 -1.0000
vn 0.0000 1.0000 0.0000
vn 0.0000 -1.0000 0.0000
usemtl Material.002
s off
f 62/118/50 64/119/50 65/120/50 63/121/50
f 64/119/51 68/122/51 69/123/51 65/120/51
f 68/122/52 66/124/52 67/125/52 69/123/52
f 66/124/53 62/126/53 63/127/53 67/125/53
f 64/128/54 62/129/54 66/124/54 68/122/54
f 69/123/55 67/125/55 63/130/55 65/131/55
o Cube.003
v 0.238732 0.133143 -1.617466
v 0.238732 -0.004614 -1.617466
v 0.238732 0.133143 -1.565353
v 0.238732 -0.004614 -1.565353
v -0.238732 0.133143 -1.617466
v -0.238732 -0.004614 -1.617466
v -0.238732 0.133143 -1.565353
v -0.238732 -0.004614 -1.565353
vt 0.375000 0.000000
vt 0.375000 0.250000
vt 0.625000 0.250000
vt 0.625000 0.000000
vt 0.375000 0.500000
vt 0.625000 0.500000
vt 0.375000 0.750000
vt 0.625000 0.750000
vt 0.375000 1.000000
vt 0.625000 1.000000
vt 0.125000 0.500000
vt 0.125000 0.750000
vt 0.875000 0.750000
vt 0.875000 0.500000
vn 1.0000 0.0000 0.0000
vn 0.0000 0.0000 1.0000
vn -1.0000 0.0000 0.0000
vn 0.0000 0.0000 -1.0000
vn 0.0000 1.0000 0.0000
vn 0.0000 -1.0000 0.0000
usemtl Material.003
s off
f 70/132/56 72/133/56 73/134/56 71/135/56
f 72/133/57 76/136/57 77/137/57 73/134/57
f 76/136/58 74/138/58 75/139/58 77/137/58
f 74/138/59 70/140/59 71/141/59 75/139/59
f 72/142/60 70/143/60 74/138/60 76/136/60
f 77/137/61 75/139/61 71/144/61 73/145/61
o Cube.004
v -0.950588 0.425287 -0.307951
v -0.950588 0.287530 -0.307951
v -0.950588 0.425287 0.314297
v -0.950588 0.287530 0.314297
v -1.140352 0.425287 -0.307951
v -1.140352 0.287530 -0.307951
v -1.140352 0.425287 0.314297
v -1.140352 0.287530 0.314297
vt 0.375000 0.000000
vt 0.375000 0.250000
vt 0.625000 0.250000
vt 0.625000 0.000000
vt 0.375000 0.500000
vt 0.625000 0.500000
vt 0.375000 0.750000
vt 0.625000 0.750000
vt 0.375000 1.000000
vt 0.625000 1.000000
vt 0.125000 0.500000
vt 0.125000 0.750000
vt 0.875000 0.750000
vt 0.875000 0.500000
vn 1.0000 0.0000 0.0000
vn 0.0000 0.0000 1.0000
vn -1.0000 0.0000 0.0000
vn 0.0000 0.0000 -1.0000
vn 0.0000 1.0000 0.0000
vn 0.0000 -1.0000 0.0000
usemtl Material.004
s off
f 78/146/62 80/147/62 81/148/62 79/149/62
f 80/147/63 84/150/63 85/151/63 81/148/63
f 84/150/64 82/152/64 83/153/64 85/151/64
f 82/152/65 78/154/65 79/155/65 83/153/65
f 80/156/66 78/157/66 82/152/66 84/150/66
f 85/151/67 83/153/67 79/158/67 81/159/67
o Cube.005
v -0.644204 0.133143 0.093141
v -0.644204 -0.004614 0.093141
v -0.644204 0.133143 0.204119
v -0.644204 -0.004614 0.204119
v -1.121667 0.133143 0.093141
v -1.121667 -0.004614 0.093141
v -1.121667 0.133143 0.204119
v -1.121667 -0.004614 0.204119
vt 0.375000 0.000000
vt 0.375000 0.250000
vt 0.625000 0.250000
vt 0.625000 0.000000
vt 0.375000 0.500000
vt 0.625000 0.500000
vt 0.375000 0.750000
vt 0.625000 0.750000
vt 0.375000 1.000000
vt 0.625000 1.000000
vt 0.125000 0.500000
vt 0.125000 0.750000
vt 0.875000 0.750000
vt 0.875000 0.500000
vn 1.0000 0.0000 0.0000
vn 0.0000 0.0000 1.0000
vn -1.0000 0.0000 0.0000
vn 0.0000 0.0000 -1.0000
vn 0.0000 1.0000 0.0000
vn 0.0000 -1.0000 0.0000
usemtl Material.005
s off
f 86/160/68 88/161/68 89/162/68 87/163/68
f 88/161/69 92/164/69 93/165/69 89/162/69
f 92/164/70 90/166/70 91/167/70 93/165/70
f 90/166/71 86/168/71 87/169/71 91/167/71
f 88/170/72 86/171/72 90/166/72 92/164/72
f 93/165/73 91/167/73 87/172/73 89/173/73
o Cube.006
v -0.644204 0.133143 -0.207655
v -0.644204 -0.004614 -0.207655
v -0.644204 0.133143 -0.096677
v -0.644204 -0.004614 -0.096677
v -1.121667 0.133143 -0.207655
v -1.121667 -0.004614 -0.207655
v -1.121667 0.133143 -0.096677
v -1.121667 -0.004614 -0.096677
vt 0.375000 0.000000
vt 0.375000 0.250000
vt 0.625000 0.250000
vt 0.625000 0.000000
vt 0.375000 0.500000
vt 0.625000 0.500000
vt 0.375000 0.750000
vt 0.625000 0.750000
vt 0.375000 1.000000
vt 0.625000 1.000000
vt 0.125000 0.500000
vt 0.125000 0.750000
vt 0.875000 0.750000
vt 0.875000 0.500000
vn 1.0000 0.0000 0.0000
vn 0.0000 0.0000 1.0000
vn -1.0000 0.0000 0.0000
vn 0.0000 0.0000 -1.0000
vn 0.0000 1.0000 0.0000
vn 0.0000 -1.0000 0.0000
usemtl Material.006
s off
f 94/174/74 96/175/74 97/176/74 95/177/74
f 96/175/75 100/178/75 101/179/75 97/176/75
f 100/178/76 98/180/76 99/181/76 101/179/76
f 98/180/77 94/182/77 95/183/77 99/181/77
f 96/184/78 94/185/78 98/180/78 100/178/78
f 101/179/79 99/181/79 95/186/79 97/187/79
